<?xml version="1.0" standalone="no"?>
<!DOCTYPE svg PUBLIC "-//W3C//DTD SVG 20010904//EN"
 "http://www.w3.org/TR/2001/REC-SVG-20010904/DTD/svg10.dtd">
<svg version="1.0" xmlns="http://www.w3.org/2000/svg"
 width="333.000000pt" height="333.000000pt" viewBox="0 0 333.000000 333.000000"
 preserveAspectRatio="xMidYMid meet">
<metadata>
Created by potrace 1.11, written by Peter Selinger 2001-2013
</metadata>
<g transform="translate(0.000000,333.000000) scale(0.100000,-0.100000)"
fill="#000000" stroke="none">
<path d="M1945 3184 c-71 -69 -140 -132 -151 -140 -20 -14 -42 -6 -303 107
-155 67 -284 119 -288 115 -6 -6 -44 -408 -44 -476 0 -30 50 -180 176 -525 18
-49 39 -107 46 -127 13 -37 14 -38 66 -38 29 0 53 -2 53 -4 0 -8 -83 -181 -89
-186 -3 -3 -7 -12 -8 -21 -5 -28 -76 -162 -168 -314 -85 -141 -90 -152 -90
-206 0 -31 3 -55 8 -52 7 4 8 -2 12 -59 2 -32 -14 -45 -101 -81 -86 -35 -98
-40 -104 -41 -3 -1 -14 -7 -25 -13 -47 -26 -148 -62 -158 -56 -6 4 -7 1 -2 -7
6 -10 4 -12 -8 -7 -10 3 -17 2 -17 -3 0 -7 -21 -18 -50 -25 -10 -3 -106 -45
-120 -54 -13 -7 -15 -59 -13 -380 1 -205 4 -375 7 -378 4 -5 134 -30 396 -77
47 -9 146 -27 220 -41 74 -13 146 -26 160 -29 14 -2 41 -7 60 -11 19 -3 42 -7
50 -9 8 -1 59 -11 113 -21 l99 -18 479 239 c263 132 479 241 479 245 0 3 -71
29 -159 57 l-158 53 -27 134 c-27 135 -37 194 -40 230 0 11 -4 22 -7 25 -4 3
-10 27 -13 54 -4 27 -10 54 -13 60 -4 5 -8 84 -9 174 l-3 164 -88 96 c-48 53
-87 102 -87 109 1 7 -2 11 -6 8 -4 -2 -21 11 -39 29 -25 26 -33 43 -36 81 -6
83 -10 343 -5 348 3 3 87 7 188 11 l182 6 223 159 c321 231 337 243 337 251 0
6 -310 98 -355 106 -51 8 -169 52 -210 78 -27 17 -67 40 -87 51 -21 11 -38 22
-39 25 -11 97 -87 504 -94 506 -6 2 -68 -53 -140 -122z m-776 -2267 c-22 -99
-41 -181 -42 -182 -1 0 -44 -27 -95 -59 -51 -32 -95 -57 -97 -55 -1 2 7 24 19
49 11 25 57 125 100 222 45 102 83 175 89 171 6 -4 7 -1 2 6 -4 8 3 35 16 63
l24 51 12 -42 c11 -38 8 -60 -28 -224z"/>
<path d="M1020 1216 c0 -2 8 -10 18 -17 15 -13 16 -12 3 4 -13 16 -21 21 -21
13z"/>
</g>
</svg>
